<svg width="28" height="28" viewBox="0 0 28 28" fill="none" xmlns="http://www.w3.org/2000/svg">
<g filter="url(#filter0_d_8507_468)">
<path d="M20.6667 7.5H13.1667C12.2462 7.5 11.5 8.24619 11.5 9.16667V16.6667C11.5 17.5871 12.2462 18.3333 13.1667 18.3333H20.6667C21.5871 18.3333 22.3333 17.5871 22.3333 16.6667V9.16667C22.3333 8.24619 21.5871 7.5 20.6667 7.5Z" stroke="#3485FF" stroke-width="2" stroke-linecap="round" stroke-linejoin="round"/>
<path d="M8.16663 12.5H7.33329C6.89127 12.5 6.46734 12.3244 6.15478 12.0118C5.84222 11.6993 5.66663 11.2754 5.66663 10.8333V3.33334C5.66663 2.89131 5.84222 2.46739 6.15478 2.15483C6.46734 1.84227 6.89127 1.66667 7.33329 1.66667H14.8333C15.2753 1.66667 15.6992 1.84227 16.0118 2.15483C16.3244 2.46739 16.5 2.89131 16.5 3.33334V4.16667" stroke="#3485FF" stroke-width="2" stroke-linecap="round" stroke-linejoin="round"/>
</g>
<defs>
<filter id="filter0_d_8507_468" x="0" y="0" width="28" height="28" filterUnits="userSpaceOnUse" color-interpolation-filters="sRGB">
<feFlood flood-opacity="0" result="BackgroundImageFix"/>
<feColorMatrix in="SourceAlpha" type="matrix" values="0 0 0 0 0 0 0 0 0 0 0 0 0 0 0 0 0 0 127 0" result="hardAlpha"/>
<feOffset dy="4"/>
<feGaussianBlur stdDeviation="2"/>
<feComposite in2="hardAlpha" operator="out"/>
<feColorMatrix type="matrix" values="0 0 0 0 0 0 0 0 0 0 0 0 0 0 0 0 0 0 0.25 0"/>
<feBlend mode="normal" in2="BackgroundImageFix" result="effect1_dropShadow_8507_468"/>
<feBlend mode="normal" in="SourceGraphic" in2="effect1_dropShadow_8507_468" result="shape"/>
</filter>
</defs>
</svg>
